<svg width="20" height="20" viewBox="0 0 20 20" fill="none" xmlns="http://www.w3.org/2000/svg">
<g id="Icons" clip-path="url(#clip0_0_265)">
<path id="Vector" d="M16.3557 19.9346C15.4843 19.9346 14.2602 19.6195 12.4271 18.5953C10.1981 17.3453 8.47393 16.1913 6.25694 13.9801C4.11942 11.8439 3.07923 10.4609 1.6234 7.81173C-0.0212583 4.82062 0.259102 3.25274 0.572499 2.58265C0.945718 1.78174 1.49662 1.30272 2.20868 0.827268C2.61313 0.562281 3.04113 0.335127 3.48727 0.148688C3.53191 0.129492 3.57343 0.111188 3.61048 0.09467C3.83147 -0.00488474 4.16629 -0.155333 4.5904 0.00538325C4.87344 0.111635 5.12613 0.329048 5.52167 0.719678C6.33284 1.51969 7.44133 3.3014 7.85026 4.17642C8.12482 4.76615 8.30652 5.15545 8.30697 5.59206C8.30697 6.10322 8.04982 6.49743 7.73776 6.92288C7.67928 7.00279 7.62124 7.07913 7.56499 7.15324C7.22526 7.59967 7.1507 7.72869 7.19981 7.95905C7.29937 8.422 8.04179 9.80014 9.26189 11.0176C10.482 12.235 11.8204 12.9305 12.2851 13.0296C12.5253 13.081 12.657 13.0033 13.1177 12.6515C13.1838 12.6011 13.2517 12.5488 13.3227 12.4966C13.7986 12.1426 14.1744 11.8921 14.6736 11.8921H14.6762C15.1106 11.8921 15.4825 12.0805 16.0986 12.3912C16.9022 12.7966 18.7374 13.8908 19.5424 14.7029C19.9339 15.0975 20.1522 15.3493 20.2589 15.6319C20.4196 16.0574 20.2683 16.3908 20.1696 16.6141C20.1531 16.6511 20.1348 16.6917 20.1156 16.7368C19.9277 17.1822 19.6992 17.6093 19.433 18.0127C18.9584 18.7226 18.4776 19.2721 17.6749 19.6458C17.2628 19.8408 16.8117 19.9395 16.3557 19.9346Z" fill="#677482"/>
</g>
<defs>
<clipPath id="clip0_0_265">
<rect width="20" height="20" fill="white"/>
</clipPath>
</defs>
</svg>
